:SAMPLES-PER-SECOND 30
:FULLY-SPECIFIED
:DEGREES
450
root  -2.34883 36.7786 15.1536 -174.528 -57.8488 175.743
RightUpLeg  -4.55248 -5.97885 -17.7698
RightLeg  41.8162 2.20468 1.8234
RightFoot  -11.7641 0.0344952 30.6052
RightToes  -1.39699e-009 0 -3.6325e-017
Spine  19.9628 3.82409 2.4274
Spine1  19.3647 -0.675565 14.2294
HEad  -32.967 -48.0656 20.1354
LeftShoulder1  1.01467 -3.93192 -5.90746
LeftArm  18.1864 -35.4315 -77.3762
LeftForeArm  9.6391 -77.063 -71.9304
LeftHand  -0.884914 2.62002 36.3886
RightShoulder  1.88716 6.89123 10.9939
RightArm  17.0274 -4.99388 54.7745
RightForeArm  75.1831 67.5935 147.056
RightHand  -1.76364 2.40312 -26.0807
LeftUpLeg  -33.4961 -11.8939 0.978562
LeftLeg  36.6236 -7.86997 -5.87557
LeftFoot  -6.16417 0.303838 -5.90063
LeftToes  3.40148e-010 1.80944e-010 1.01921e-010
451
root  -2.3543 36.7665 15.1224 -174.21 -58.3034 175.309
RightUpLeg  -4.30886 -6.1164 -17.9229
RightLeg  41.8998 2.08508 1.71413
RightFoot  -11.8667 0.0627254 30.7971
RightToes  -1.39699e-009 0 -3.6325e-017
Spine  19.7152 3.65761 2.46403
Spine1  19.5155 -0.853916 14.1508
HEad  -32.9168 -48.1842 20.0808
LeftShoulder1  1.01138 -3.9148 -5.87981
LeftArm  18.1912 -35.4649 -77.3507
LeftForeArm  9.85992 -77.0856 -72.2845
LeftHand  -0.863917 2.68156 36.3441
RightShoulder  1.88401 6.95972 10.9013
RightArm  17.4607 -5.10582 55.0149
RightForeArm  75.1706 67.6879 146.893
RightHand  -1.88863 2.85127 -26.4058
LeftUpLeg  -33.4791 -12.4274 0.768356
LeftLeg  36.6289 -7.7379 -5.77306
LeftFoot  -6.05265 0.303451 -5.78208
LeftToes  3.40148e-010 1.80944e-010 1.01921e-010
452
root  -2.20326 36.788 15.0379 -175.709 -57.9068 176.409
RightUpLeg  -4.06067 -4.82088 -16.752
RightLeg  41.9201 1.46672 1.1211
RightFoot  -11.8551 0.0602671 30.9356
RightToes  -1.39699e-009 0 -3.6325e-017
Spine  20.9812 4.13143 2.63038
Spine1  18.8579 -0.32087 14.5137
HEad  -32.9195 -48.3501 19.9941
LeftShoulder1  1.02458 -3.9887 -5.92677
LeftArm  18.1075 -35.5401 -77.2118
LeftForeArm  10.356 -77.1162 -72.7078
LeftHand  -0.881413 2.63743 36.4712
RightShoulder  1.88349 6.9108 10.9752
RightArm  17.9549 -4.95492 55.0117
RightForeArm  74.996 67.8688 146.571
RightHand  -1.93016 3.00052 -26.5038
LeftUpLeg  -32.9552 -11.4992 1.42686
LeftLeg  36.7458 -8.0732 -6.06175
LeftFoot  -6.05449 0.300793 -5.72074
LeftToes  3.40148e-010 1.80944e-010 1.01921e-010
453
root  -1.97448 36.8268 14.9229 -177.99 -57.1146 178.203
RightUpLeg  -3.80081 -3.00077 -14.9374
RightLeg  41.9034 0.648239 0.333678
RightFoot  -11.7703 0.0375851 30.9723
RightToes  -1.39699e-009 0 -3.6325e-017
Spine  22.919 4.89968 2.84926
Spine1  17.823 0.551438 15.0909
HEad  -32.9189 -48.5128 19.9432
LeftShoulder1  1.03799 -4.09606 -5.90848
LeftArm  17.9547 -35.6552 -77.1069
LeftForeArm  10.6883 -77.1301 -72.8658
LeftHand  -0.939486 2.48323 36.7748
RightShoulder  1.88617 6.80089 11.143
RightArm  18.4388 -4.7389 54.9137
RightForeArm  74.9368 68.0208 146.3
RightHand  -1.91579 2.95705 -26.4448
LeftUpLeg  -32.2194 -9.83289 2.55028
LeftLeg  36.8972 -8.72937 -6.61254
LeftFoot  -6.07621 0.298245 -5.66606
LeftToes  3.40148e-010 1.80944e-010 1.01921e-010
454
root  -1.82645 36.857 14.841 -179.242 -56.7632 179.199
RightUpLeg  -3.56672 -2.1898 -13.879
RightLeg  41.8078 0.248885 -0.0507373
RightFoot  -11.7549 0.0331405 30.9004
RightToes  -1.39699e-009 0 -3.6325e-017
Spine  24.0006 5.27118 3.0407
Spine1  17.1665 1.0386 15.3468
HEad  -32.8592 -48.6165 19.9649
LeftShoulder1  1.02618 -4.12442 -5.67656
LeftArm  17.7596 -35.7482 -77.1729
LeftForeArm  10.606 -77.1199 -72.6894
LeftHand  -1.00439 2.31265 37.0988
RightShoulder  1.89883 6.78485 11.316
RightArm  18.8097 -4.71375 54.8719
RightForeArm  74.855 68.0362 146.269
RightHand  -1.93365 2.95913 -26.6754
LeftUpLeg  -31.7913 -8.9244 3.24876
LeftLeg  36.8948 -9.18875 -6.97307
LeftFoot  -6.00957 0.296862 -5.6305
LeftToes  3.40148e-010 1.80944e-010 1.01921e-010
455
root  -1.79914 36.8774 14.8173 -179.261 -56.9507 179.22
RightUpLeg  -3.37541 -2.53856 -13.8706
RightLeg  41.5606 0.397295 0.0894414
RightFoot  -11.8465 0.0572106 30.775
RightToes  -1.39699e-009 0 -3.6325e-017
Spine  23.9377 5.10933 3.27688
Spine1  17.0956 1.01378 15.1218
HEad  -32.8231 -48.6387 20.063
LeftShoulder1  0.997977 -4.07495 -5.35638
LeftArm  17.6089 -35.7729 -77.3289
LeftForeArm  10.2374 -77.0954 -72.3383
LeftHand  -1.0453 2.2078 37.3132
RightShoulder  1.92516 6.85935 11.451
RightArm  18.9663 -4.8431 54.8788
RightForeArm  74.5638 67.9626 146.39
RightHand  -1.89817 2.78393 -26.7398
LeftUpLeg  -31.7254 -9.05595 3.30973
LeftLeg  36.6922 -9.25952 -6.97694
LeftFoot  -5.89742 0.301054 -5.68382
LeftToes  3.40148e-010 1.80944e-010 1.01921e-010
456
root  -1.7955 36.8944 14.8108 -179.119 -57.2306 179.09
RightUpLeg  -3.1376 -3.12028 -14.0702
RightLeg  41.2562 0.677902 0.351367
RightFoot  -11.9782 0.0917659 30.6491
RightToes  -1.39699e-009 0 -3.6325e-017
Spine  23.6928 4.87437 3.50819
Spine1  17.1534 0.872492 14.953
HEad  -32.8972 -48.5979 20.1764
LeftShoulder1  0.985973 -4.0511 -5.22407
LeftArm  17.5838 -35.7434 -77.3767
LeftForeArm  9.91859 -77.0736 -72.0328
LeftHand  -1.07178 2.13803 37.423
RightShoulder  1.93613 6.88307 11.5212
RightArm  18.9573 -4.90811 54.8781
RightForeArm  74.2705 67.9115 146.47
RightHand  -1.82463 2.52961 -26.5349
LeftUpLeg  -31.6836 -9.40707 3.26259
LeftLeg  36.4521 -9.24039 -6.90101
LeftFoot  -5.82817 0.311539 -5.83811
LeftToes  3.40148e-010 1.80944e-010 1.01921e-010
457
root  -1.74981 36.9106 14.7895 -179.392 -57.2108 179.246
RightUpLeg  -2.92807 -3.25073 -13.9637
RightLeg  41.0737 0.804085 0.466142
RightFoot  -12.064 0.113868 30.5315
RightToes  -1.39699e-009 0 -3.6325e-017
Spine  23.8536 4.90696 3.59237
Spine1  17.086 0.904988 15.0881
HEad  -33.0119 -48.5315 20.2152
LeftShoulder1  0.996376 -4.07188 -5.33853
LeftArm  17.6751 -35.6863 -77.3011
LeftForeArm  9.83727 -77.0651 -71.8997
LeftHand  -1.11685 2.02005 37.6059
RightShoulder  1.92422 6.82643 11.5067
RightArm  18.8625 -4.82126 54.8856
RightForeArm  74.1551 67.9293 146.434
RightHand  -1.80764 2.46594 -26.5007
LeftUpLeg  -31.4788 -9.34109 3.41347
LeftLeg  36.2971 -9.32863 -6.9298
LeftFoot  -5.81567 0.322178 -5.99845
LeftToes  3.40148e-010 1.80944e-010 1.01921e-010
458
root  -1.70296 36.9189 14.7688 -179.532 -57.0151 179.276
RightUpLeg  -2.92197 -3.21347 -13.9202
RightLeg  41.0976 0.9169 0.572214
RightFoot  -12.101 0.122857 30.4129
RightToes  -1.39699e-009 0 -3.6325e-017
Spine  23.9734 5.02837 3.4965
Spine1  17.1304 0.963198 15.2257
HEad  -33.0619 -48.4739 20.1775
LeftShoulder1  1.00494 -4.04871 -5.51182
LeftArm  17.8141 -35.6185 -77.2635
LeftForeArm  9.83337 -77.0643 -71.8871
LeftHand  -1.17209 1.88982 37.9638
RightShoulder  1.91112 6.79982 11.4191
RightArm  18.7064 -4.68986 54.9521
RightForeArm  74.2132 67.9866 146.334
RightHand  -1.87427 2.6512 -26.8324
LeftUpLeg  -31.3127 -9.13488 3.50471
LeftLeg  36.1972 -9.38104 -6.94449
LeftFoot  -5.80665 0.327331 -6.07757
LeftToes  3.40148e-010 1.80944e-010 1.01921e-010
459
root  -1.6909 36.9202 14.7613 -179.307 -56.886 179.033
RightUpLeg  -3.04978 -3.33276 -14.1292
RightLeg  41.2119 1.10301 0.749635
RightFoot  -12.106 0.123402 30.3009
RightToes  -1.39699e-009 0 -3.6325e-017
Spine  23.7915 5.0351 3.34207
Spine1  17.3544 0.902947 15.1975
HEad  -33.081 -48.4482 20.17
LeftShoulder1  1.00182 -3.97152 -5.61943
LeftArm  17.9423 -35.5734 -77.3012
LeftForeArm  9.63448 -77.058 -71.838
LeftHand  -1.17729 1.89937 38.222
RightShoulder  1.90642 6.83948 11.2891
RightArm  18.5123 -4.62303 55.0861
RightForeArm  74.4472 68.042 146.244
RightHand  -1.9566 2.89309 -27.1833
LeftUpLeg  -31.284 -9.11887 3.41424
LeftLeg  36.1039 -9.3173 -6.87184
LeftFoot  -5.78678 0.328931 -6.10653
LeftToes  3.40148e-010 1.80944e-010 1.01921e-010
460
root  -1.68124 36.9253 14.749 -179.315 -56.8397 178.97
RightUpLeg  -3.01812 -3.38685 -14.1786
RightLeg  41.2409 1.16371 0.807643
RightFoot  -12.0803 0.116109 30.2267
RightToes  -1.39699e-009 0 -3.6325e-017
Spine  23.7769 5.01637 3.24022
Spine1  17.4714 0.83214 15.2223
HEad  -33.1453 -48.4604 20.2541
LeftShoulder1  1.00463 -3.9505 -5.70415
LeftArm  18.0272 -35.5854 -77.2823
LeftForeArm  9.28391 -77.045 -71.7166
LeftHand  -1.10621 2.09048 38.02
RightShoulder  1.89558 6.84979 11.1519
RightArm  18.3628 -4.62264 55.242
RightForeArm  74.7912 68.0663 146.213
RightHand  -1.99524 3.01485 -27.3141
LeftUpLeg  -31.1789 -9.12447 3.40443
LeftLeg  36.0397 -9.29807 -6.84081
LeftFoot  -5.78568 0.331251 -6.15296
LeftToes  3.40148e-010 1.80944e-010 1.01921e-010
461
root  -1.65752 36.9335 14.7242 -179.714 -56.8557 179.188
RightUpLeg  -2.75812 -3.25674 -13.9467
RightLeg  41.1676 1.03518 0.684901
RightFoot  -12.0741 0.114372 30.2123
RightToes  -1.39699e-009 0 -3.6325e-017
Spine  24.0837 5.03825 3.18103
Spine1  17.4056 0.805294 15.3733
HEad  -33.2088 -48.4688 20.3497
LeftShoulder1  1.01809 -4.02107 -5.76369
LeftArm  18.0652 -35.6505 -77.1923
LeftForeArm  9.13022 -77.0394 -71.6854
LeftHand  -1.01751 2.30712 37.4921
RightShoulder  1.87651 6.78356 11.0771
RightArm  18.3116 -4.64752 55.3423
RightForeArm  75.0297 68.0384 146.272
RightHand  -1.99499 2.99426 -27.3746
LeftUpLeg  -30.9414 -9.04417 3.5408
LeftLeg  36.0404 -9.39284 -6.91308
LeftFoot  -5.81455 0.332966 -6.19708
LeftToes  3.40148e-010 1.80944e-010 1.01921e-010
462
root  -1.64883 36.9318 14.704 -179.944 -56.9353 179.291
RightUpLeg  -2.54356 -3.16374 -13.8007
RightLeg  41.125 0.913619 0.569954
RightFoot  -12.1414 0.132215 30.2342
RightToes  -1.39699e-009 0 -3.6325e-017
Spine  24.2668 5.0056 3.12925
Spine1  17.3825 0.754369 15.3935
HEad  -33.1905 -48.391 20.3687
LeftShoulder1  1.01937 -4.07035 -5.68351
LeftArm  18.0832 -35.7397 -77.1998
LeftForeArm  9.29337 -77.0439 -71.8428
LeftHand  -0.973726 2.41008 37.1523
RightShoulder  1.87193 6.72286 11.148
RightArm  18.2908 -4.66609 55.3317
RightForeArm  75.0707 67.9729 146.39
RightHand  -1.96796 2.87345 -27.3952
LeftUpLeg  -30.8118 -9.01095 3.5944
LeftLeg  36.1045 -9.48743 -7.00149
LeftFoot  -5.86233 0.331136 -6.19378
LeftToes  3.40148e-010 1.80944e-010 1.01921e-010
463
root  -1.65819 36.9197 14.6946 -179.91 -56.9575 179.262
RightUpLeg  -2.54374 -3.12932 -13.7962
RightLeg  41.1813 0.882418 0.54207
RightFoot  -12.2221 0.153484 30.2401
RightToes  -1.39699e-009 0 -3.6325e-017
Spine  24.2298 4.9296 3.11424
Spine1  17.4408 0.724456 15.202
HEad  -33.1233 -48.2067 20.3499
LeftShoulder1  0.998874 -4.02789 -5.46224
LeftArm  18.0906 -35.8277 -77.3505
LeftForeArm  9.43815 -77.0499 -72.0029
LeftHand  -0.961761 2.44808 37.1717
RightShoulder  1.8912 6.74359 11.3159
RightArm  18.2264 -4.6465 55.2606
RightForeArm  75.0291 67.9373 146.452
RightHand  -1.91417 2.69266 -27.2459
LeftUpLeg  -30.8599 -8.95285 3.57137
LeftLeg  36.2214 -9.55045 -7.07999
LeftFoot  -5.93335 0.327515 -6.17459
LeftToes  3.40148e-010 1.80944e-010 1.01921e-010
464
root  -1.66602 36.9091 14.6858 179.998 -56.8614 179.391
RightUpLeg  -2.61393 -3.04256 -13.7029
RightLeg  41.2648 0.863775 0.526438
RightFoot  -12.2204 0.152816 30.2128
RightToes  -1.39699e-009 0 -3.6325e-017
Spine  24.2503 4.91864 3.12853
Spine1  17.461 0.76677 15.0581
HEad  -33.0766 -48.0335 20.3656
LeftShoulder1  0.980288 -3.97707 -5.28394
LeftArm  18.0501 -35.8855 -77.4592
LeftForeArm  9.30927 -77.0494 -71.9551
LeftHand  -0.947994 2.4971 37.2616
RightShoulder  1.90986 6.81309 11.3789
RightArm  18.1863 -4.57415 55.2587
RightForeArm  74.9119 67.9869 146.359
RightHand  -1.86526 2.52553 -27.1143
LeftUpLeg  -30.9129 -8.77369 3.64821
LeftLeg  36.3737 -9.6166 -7.17068
LeftFoot  -6.03409 0.322513 -6.175
LeftToes  3.40148e-010 1.80944e-010 1.01921e-010
